<?xml version="1.0" encoding="UTF-8"?>
<svg version="1.1" xmlns="http://www.w3.org/2000/svg" width="790" height="316">
<path d="M0 0 C1.08055664 0.00829834 2.16111328 0.01659668 3.27441406 0.02514648 C22.1228368 0.41608292 38.76611787 4.50973278 52.71875 17.94140625 C67.16505912 34.19350401 66.97624494 54.4504834 66.16064453 74.90185547 C64.68042543 98.35539267 52.21283852 119.98566257 35.9375 136.4375 C22.70862438 147.91992315 6.96994283 153.0318013 -10.3125 152.875 C-11.50327148 152.86597656 -12.69404297 152.85695312 -13.92089844 152.84765625 C-31.74733398 152.4974507 -50.14583382 146.3891707 -63.0625 133.4375 C-63.0625 132.7775 -63.0625 132.1175 -63.0625 131.4375 C-63.7225 131.4375 -64.3825 131.4375 -65.0625 131.4375 C-65.0625 130.7775 -65.0625 130.1175 -65.0625 129.4375 C-65.7225 129.4375 -66.3825 129.4375 -67.0625 129.4375 C-71.96940711 123.08027552 -75.56432037 116.04502189 -78.0625 108.4375 C-78.28808594 107.78007812 -78.51367188 107.12265625 -78.74609375 106.4453125 C-82.45954251 93.28177689 -80.20111272 78.46956585 -77.0625 65.4375 C-76.80726562 64.34050781 -76.55203125 63.24351562 -76.2890625 62.11328125 C-72.78166202 49.03292992 -65.03762699 35.59639673 -56.0625 25.4375 C-55.4025 25.4375 -54.7425 25.4375 -54.0625 25.4375 C-53.8253125 24.86515625 -53.588125 24.2928125 -53.34375 23.703125 C-51.78656762 20.9495708 -49.93757203 19.26954366 -47.5625 17.1875 C-46.7684375 16.48109375 -45.974375 15.7746875 -45.15625 15.046875 C-43.0625 13.4375 -43.0625 13.4375 -41.0625 13.4375 C-41.0625 12.7775 -41.0625 12.1175 -41.0625 11.4375 C-38.48559452 10.15210046 -35.90205094 8.88448347 -33.3125 7.625 C-32.60222656 7.26857422 -31.89195313 6.91214844 -31.16015625 6.54492188 C-21.09416572 1.69008573 -11.12585289 -0.11189288 0 0 Z M-29.0625 38.4375 C-29.76375 39.05753906 -30.465 39.67757812 -31.1875 40.31640625 C-36.29781655 45.10732802 -39.77042787 50.28356971 -43.0625 56.4375 C-43.51625 57.26507813 -43.97 58.09265625 -44.4375 58.9453125 C-50.93390776 71.28075343 -54.79930332 86.61661731 -50.8046875 100.40625 C-47.11953736 110.49192405 -40.54150374 117.40544094 -31 122.3125 C-18.80275909 127.35904428 -5.79329985 127.52246702 6.5 122.875 C21.6152441 115.53331001 30.55791589 99.73338898 35.97265625 84.53125 C38.00894557 77.33320402 38.23788591 70.18180072 38.3125 62.75 C38.32651855 61.78787598 38.34053711 60.82575195 38.35498047 59.83447266 C38.29558956 50.95781543 36.75803528 42.42214233 30.9375 35.4375 C20.68160652 26.49646466 6.1222717 26.43877607 -6.72949219 27.21435547 C-15.83968141 28.08571513 -22.40120991 32.44968593 -29.0625 38.4375 Z " fill="#F5F5F5" transform="translate(88.0625,67.5625)"/>
<path d="M0 0 C0 0.66 0 1.32 0 2 C0.66 2 1.32 2 2 2 C2 2.66 2 3.32 2 4 C2.66 4 3.32 4 4 4 C8.01944517 10.74229513 9.95666893 16.03212728 9 24 C5.25808581 34.8573676 -2.96578212 40.39701879 -12.81982422 45.44433594 C-15.67451427 46.79878362 -18.54759887 48.09748287 -21.4375 49.375 C-22.46504395 49.83688721 -23.49258789 50.29877441 -24.55126953 50.7746582 C-26.66045161 51.72208526 -28.7711268 52.66619551 -30.88330078 53.60693359 C-33.90719119 54.95851738 -36.92168192 56.3289895 -39.93359375 57.70703125 C-41.74732385 58.53401205 -43.56112244 59.36084268 -45.375 60.1875 C-46.21861084 60.57405762 -47.06222168 60.96061523 -47.93139648 61.35888672 C-48.70427002 61.70838379 -49.47714355 62.05788086 -50.2734375 62.41796875 C-50.94810059 62.72500732 -51.62276367 63.0320459 -52.31787109 63.34838867 C-54 64 -54 64 -56 64 C-56 64.66 -56 65.32 -56 66 C-55.0409375 66.37125 -55.0409375 66.37125 -54.0625 66.75 C-51 68 -51 68 -49.19140625 68.98828125 C-40.35770711 73.58046889 -29.37601055 74.23665301 -19.7265625 71.9453125 C-15.29688954 70.40952331 -11.09431364 68.36846425 -6.83911133 66.40844727 C-1.60878629 64.07630019 2.2260874 63.13391311 8 64 C10.64580137 65.11402163 11.75227306 65.61071481 13.3125 68.0625 C14.49672942 73.12238934 14.03266808 77.88303044 11.75 82.5625 C5.88971458 90.72504041 -5.68897065 94.45393322 -15 97 C-35.09005148 100.19017903 -54.13004859 97.84627971 -71.25 86.25 C-72.1575 85.5075 -73.065 84.765 -74 84 C-74 83.34 -74 82.68 -74 82 C-74.66 82 -75.32 82 -76 82 C-77.40234375 80.12890625 -77.40234375 80.12890625 -78.9375 77.5625 C-79.44152344 76.73878906 -79.94554687 75.91507812 -80.46484375 75.06640625 C-84.43281104 67.14056828 -85.52528371 60.15126668 -85.4375 51.3125 C-85.43065186 50.25466309 -85.42380371 49.19682617 -85.41674805 48.10693359 C-85.12383927 33.77744134 -80.76293095 20.48246124 -72 9 C-71.34 9 -70.68 9 -70 9 C-69.731875 8.360625 -69.46375 7.72125 -69.1875 7.0625 C-68 5 -68 5 -65 4 C-65 3.34 -65 2.68 -65 2 C-47.2937819 -11.27042234 -18.59041592 -12.39361062 0 0 Z M-52.52734375 25.8359375 C-56.47706668 31.49044188 -56.47706668 31.49044188 -58 38 C-43.90293204 33.72053294 -30.8486597 27.10737641 -18 20 C-29.51667717 12.32221522 -44.14861743 15.25853832 -52.52734375 25.8359375 Z " fill="#F4F4F4" transform="translate(351,121)"/>
<path d="M0 0 C3.17371522 2.40277225 5.59124147 4.27885126 6.2265625 8.375 C6.38575125 12.62533951 5.50964663 15.51711644 3.9296875 19.4609375 C0.31745092 38.57852922 1.84971749 60.42114157 10.2734375 77.85375977 C12.59647117 82.81607645 13.42868331 85.95540911 11.9296875 91.4609375 C9.49770243 95.36948493 7.39640345 97.29108332 2.9296875 98.4609375 C-2.30950391 99.27592283 -5.25462956 97.48895916 -9.53125 94.75 C-10.03914063 94.32460937 -10.54703125 93.89921875 -11.0703125 93.4609375 C-11.0703125 92.8009375 -11.0703125 92.1409375 -11.0703125 91.4609375 C-11.7303125 91.4609375 -12.3903125 91.4609375 -13.0703125 91.4609375 C-13.0703125 90.8009375 -13.0703125 90.1409375 -13.0703125 89.4609375 C-13.94768066 89.77115845 -13.94768066 89.77115845 -14.84277344 90.08764648 C-17.50129274 91.02645918 -20.16078832 91.96247548 -22.8203125 92.8984375 C-23.74070312 93.22392578 -24.66109375 93.54941406 -25.609375 93.88476562 C-26.49882812 94.19736328 -27.38828125 94.50996094 -28.3046875 94.83203125 C-29.12163086 95.12005615 -29.93857422 95.40808105 -30.78027344 95.70483398 C-42.86468531 99.69475121 -57.05856575 97.60262777 -68.53515625 92.328125 C-69.04175781 92.04195313 -69.54835938 91.75578125 -70.0703125 91.4609375 C-70.0703125 90.8009375 -70.0703125 90.1409375 -70.0703125 89.4609375 C-71.7203125 88.8009375 -73.3703125 88.1409375 -75.0703125 87.4609375 C-75.0703125 86.8009375 -75.0703125 86.1409375 -75.0703125 85.4609375 C-75.7303125 85.4609375 -76.3903125 85.4609375 -77.0703125 85.4609375 C-88.41522225 71.80912409 -89.353613 54.45183605 -88.0703125 37.4609375 C-85.97913854 22.92995949 -76.49195944 9.84129692 -64.9921875 1.12890625 C-44.72868665 -12.06194757 -20.40721388 -13.53609809 0 0 Z M-55.73828125 29.54296875 C-60.89000513 37.20256995 -61.89177315 45.37431889 -61.0703125 54.4609375 C-59.68120668 61.5078612 -57.49922347 67.88925427 -51.5703125 72.3359375 C-43.45570724 74.94420348 -35.94521868 73.98652169 -28.2265625 70.62890625 C-24.93447064 68.84789955 -24.93447064 68.84789955 -22.0703125 66.4609375 C-21.71792119 63.58336374 -21.71792119 63.58336374 -22.15234375 60.30859375 C-22.26054443 59.06561523 -22.36874512 57.82263672 -22.48022461 56.54199219 C-22.54611786 55.88533569 -22.61201111 55.2286792 -22.67990112 54.55212402 C-23.01949493 51.15690095 -23.29613673 47.75712901 -23.5625 44.35546875 C-23.61585007 43.68027191 -23.66920013 43.00507507 -23.72416687 42.30941772 C-24.21315591 35.56172677 -23.92567471 28.94996842 -23.26293945 22.22680664 C-23.01500702 19.76931486 -23.01500702 19.76931486 -23.0703125 16.4609375 C-34.66197363 8.73316342 -48.71181899 20.77223249 -55.73828125 29.54296875 Z " fill="#F5F5F5" transform="translate(465.0703125,122.5390625)"/>
<path d="M0 0 C4.40041954 3.7336893 5.66232069 7.14928277 7.0625 12.75 C8.01125 11.863125 8.96 10.97625 9.9375 10.0625 C17.59453592 3.46807315 25.76253441 0.55860912 35.75 0.4375 C36.52794922 0.40849609 37.30589844 0.37949219 38.10742188 0.34960938 C44.9743677 0.27515542 49.93496257 2.17371917 55.234375 6.5390625 C66.23018887 19.3312222 66.26704386 35.55226664 66.46951294 51.62405396 C66.62424186 63.04812859 66.91302121 74.27777232 69.04663086 85.53759766 C70.2986121 92.16992373 71.41791746 98.98896444 68.375 105.1875 C65.06515819 108.85516255 62.52164131 110.36456645 57.75 111.625 C53.34418709 111.77434959 49.85725343 111.03510152 46.0625 108.75 C43.47810906 105.94166887 42.59148245 103.6758988 42 99.9375 C41.8453125 98.96941406 41.690625 98.00132812 41.53125 97.00390625 C41.3765625 95.93011719 41.221875 94.85632813 41.0625 93.75 C40.8871875 92.56277344 40.711875 91.37554687 40.53125 90.15234375 C38.47865084 75.55776003 37.94255019 61.21669905 38.0625 46.5 C38.08903143 43.16146222 38.1089773 39.8229777 38.125 36.484375 C38.13329834 35.72098816 38.14159668 34.95760132 38.15014648 34.17108154 C38.15869014 32.3638384 38.11589859 30.55647429 38.0625 28.75 C37.7325 28.42 37.4025 28.09 37.0625 27.75 C30.0634664 27.87279006 26.09364062 29.94111861 21.0625 34.75 C10.33050877 46.417144 4.74505382 60.98426202 5.0703125 76.78515625 C5.08707031 78.08904297 5.10382812 79.39292969 5.12109375 80.73632812 C5.15205882 82.77928573 5.18771087 84.8218284 5.23388672 86.86450195 C5.27645257 88.85864053 5.29860125 90.85318159 5.3203125 92.84765625 C5.35342529 94.61894897 5.35342529 94.61894897 5.38720703 96.42602539 C5.01914082 100.19386106 4.05075329 102.54469293 2.0625 105.75 C-2.13409685 108.39568062 -6.12223849 110.31710304 -11.109375 109.3125 C-16.11791846 107.87213456 -19.25151569 106.45047255 -21.9375 101.75 C-25.28444596 88.93942814 -24.01994911 74.48376183 -23.15899658 61.41598511 C-22.46000108 50.79460754 -21.82407353 40.1906389 -21.94140625 29.54296875 C-21.94872269 28.82656219 -21.95603912 28.11015564 -21.96357727 27.37203979 C-22.00540999 24.01889743 -22.07921505 20.67125578 -22.18774414 17.31933594 C-22.3992818 6.53165219 -22.3992818 6.53165219 -17.9375 1.75 C-12.98347707 -2.6211967 -5.87002456 -2.49788279 0 0 Z " fill="#F5F5F5" transform="translate(510.9375,110.25)"/>
<path d="M0 0 C11.70448703 0.96163626 23.47689945 0.72869016 35.19921875 0.203125 C37.00108643 0.12360596 37.00108643 0.12360596 38.83935547 0.04248047 C41.18919724 -0.06689607 43.5385636 -0.18718321 45.88720703 -0.31982422 C52.07527571 -0.61475667 57.24869567 -0.56556869 63.125 1.5 C65.72785727 4.10285727 67.0085974 5.885287 67.27734375 9.61328125 C66.6144003 19.45544172 61.25559746 25.88826681 55.05078125 33.1796875 C53.11174042 35.33726797 53.11174042 35.33726797 52.125 37.5 C51.465 37.5 50.805 37.5 50.125 37.5 C49.85059082 38.08442871 49.57618164 38.66885742 49.29345703 39.27099609 C48.16012666 41.43299072 46.91827653 43.23403334 45.4296875 45.1640625 C43.17596602 48.11754469 40.94981968 51.08628232 38.7578125 54.0859375 C32.70270752 62.35522267 26.66267696 70.60199895 20.125 78.5 C21.68734375 78.57347656 21.68734375 78.57347656 23.28125 78.6484375 C53.5839921 80.1769356 53.5839921 80.1769356 61.125 85.5 C64.17556084 89.78985119 64.68166413 93.30446811 64.125 98.5 C62.55045619 102.5938139 61.1068075 105.50909625 57.125 107.5 C51.68333585 108.6409941 47.34353681 108.4717579 41.875 107.5625 C27.01786202 105.240078 12.29170875 106.27211492 -2.52880859 108.43237305 C-19.53652577 110.88051959 -19.53652577 110.88051959 -25.875 107.5 C-25.875 106.84 -25.875 106.18 -25.875 105.5 C-26.535 105.5 -27.195 105.5 -27.875 105.5 C-30.32862322 101.81956517 -30.51986307 99.56336061 -30.46875 95.21875 C-29.37017859 90.18844931 -25.74931329 86.72081467 -21.875 83.5 C-21.215 83.5 -20.555 83.5 -19.875 83.5 C-19.606875 82.901875 -19.33875 82.30375 -19.0625 81.6875 C-17.87582594 79.50152146 -16.77900887 78.08667406 -14.875 76.5 C-14.215 76.5 -13.555 76.5 -12.875 76.5 C-12.875 75.84 -12.875 75.18 -12.875 74.5 C-12.215 74.5 -11.555 74.5 -10.875 74.5 C-10.875 73.84 -10.875 73.18 -10.875 72.5 C-10.215 72.5 -9.555 72.5 -8.875 72.5 C-8.875 71.84 -8.875 71.18 -8.875 70.5 C-8.215 70.5 -7.555 70.5 -6.875 70.5 C-6.875 69.84 -6.875 69.18 -6.875 68.5 C-6.215 68.5 -5.555 68.5 -4.875 68.5 C-4.565625 67.88125 -4.25625 67.2625 -3.9375 66.625 C-3.25 65.25 -2.5625 63.875 -1.875 62.5 C-1.215 62.5 -0.555 62.5 0.125 62.5 C0.40263184 61.90703125 0.68026367 61.3140625 0.96630859 60.703125 C2.0494401 58.64366888 3.18211084 57.0333197 4.6640625 55.25 C5.15849854 54.64712158 5.65293457 54.04424316 6.16235352 53.4230957 C6.68627686 52.78847412 7.2102002 52.15385254 7.75 51.5 C12.35177619 45.84856247 16.55932704 40.1214657 20.50390625 33.98828125 C21.96327477 31.74823849 23.51056514 29.6290025 25.125 27.5 C24.41899658 27.58161377 23.71299316 27.66322754 22.9855957 27.74731445 C14.97718747 28.55813562 7.3238293 28.34431283 -0.6875 27.6875 C-1.86248047 27.60435547 -3.03746094 27.52121094 -4.24804688 27.43554688 C-19.98341923 26.21829899 -19.98341923 26.21829899 -25.875 20.5 C-27.67538454 15.09884639 -27.73342938 10.2828918 -25.25 5.125 C-18.28001326 -2.57866956 -9.49565086 -0.83748931 0 0 Z " fill="#F5F5F5" transform="translate(618.875,112.5)"/>
<path d="M0 0 C2.65239439 2.08178472 3.88311808 3.364198 4.96484375 6.609375 C5.35818669 11.821169 4.93827463 15.24834305 1.96484375 19.609375 C-2.37849104 22.57073963 -5.837382 23.16627938 -11.03515625 22.609375 C-13.77038639 21.44544728 -16.25216225 20.07709266 -18.80078125 18.5546875 C-24.32599035 15.47764016 -29.68278258 14.19344577 -36.03515625 14.609375 C-40.14770958 15.99001791 -42.6056556 17.96512403 -45.03515625 21.609375 C-45.69515625 21.609375 -46.35515625 21.609375 -47.03515625 21.609375 C-47.29296875 22.30546875 -47.55078125 23.0015625 -47.81640625 23.71875 C-49.16736667 26.92295099 -50.8133394 29.83889967 -52.53515625 32.859375 C-56.74945621 40.622098 -59.72943067 48.71314865 -57.53515625 57.64453125 C-55.54289193 63.700562 -52.53986566 67.20673773 -46.91015625 70.359375 C-38.37799761 73.57975592 -30.34638358 73.03093136 -22.03515625 69.609375 C-18.73502525 68.05590832 -15.45792776 66.47831534 -12.2109375 64.81640625 C-8.56510287 63.43072003 -5.9065874 63.2802805 -2.03515625 63.609375 C2.30910754 65.86505043 5.02275888 68.07784364 6.96484375 72.609375 C7.37606411 75.89913791 7.18989031 78.00925085 6.02734375 81.109375 C-1.44758849 90.16989893 -15.82096543 96.41619722 -27.2890625 98.08203125 C-41.61680498 99.45032279 -56.19894661 97.02514813 -67.97265625 88.234375 C-78.48789925 79.29545728 -84.08429716 68.83290815 -85.25390625 55.02734375 C-85.67099166 43.15778805 -82.54189113 32.03606153 -77.03515625 21.609375 C-76.54273438 20.64386719 -76.0503125 19.67835938 -75.54296875 18.68359375 C-68.82448239 6.29136173 -59.24312461 -4.82058624 -45.91796875 -10.25390625 C-30.75726726 -14.72905308 -12.57982145 -8.5958089 0 0 Z " fill="#F3F3F3" transform="translate(248.03515625,122.390625)"/>
<path d="M0 0 C1.68765239 0.4577719 3.37511352 0.9162489 5.0625 1.375 C6.07054687 1.64828125 7.07859375 1.9215625 8.1171875 2.203125 C10.31658239 2.81108781 12.50493764 3.45913352 14.6875 4.125 C20.64413264 5.69845013 26.16000833 6.06518512 32.29296875 5.88671875 C33.9800293 5.8412793 33.9800293 5.8412793 35.70117188 5.79492188 C38.03777798 5.72292561 40.37386284 5.63157053 42.70898438 5.52148438 C51.05022181 5.34401124 51.05022181 5.34401124 53.86425781 7.28759766 C55.21484375 8.89453125 55.21484375 8.89453125 57 12 C57.45375 12.66 57.9075 13.32 58.375 14 C59.56543944 17.80940619 58.41975997 21.19842446 56.6171875 24.640625 C56.04226563 25.50171875 55.46734375 26.3628125 54.875 27.25 C54.24335937 28.19875 53.61171875 29.1475 52.9609375 30.125 C52.31382812 31.07375 51.66671875 32.0225 51 33 C50.41476562 33.886875 49.82953125 34.77375 49.2265625 35.6875 C44.94510556 42.04187953 40.41932217 47.72045189 34 52 C31.3125 51.625 31.3125 51.625 29 51 C27.74707757 46.06115463 28.16922421 43.73774002 30.75 39.375 C31.28109375 38.45460938 31.8121875 37.53421875 32.359375 36.5859375 C33.81164438 34.29688433 35.33451469 32.13703838 37 30 C31.5015234 32.69985079 26.02907679 35.43030888 20.640625 38.34375 C-16.1959231 58.23711849 -59.63957282 69.05355361 -101 57 C-101.66257812 56.81808105 -102.32515625 56.63616211 -103.0078125 56.44873047 C-113.29884793 53.5812831 -122.64437382 49.05440001 -132 44 C-133.35544922 43.27683594 -133.35544922 43.27683594 -134.73828125 42.5390625 C-146.92619932 35.63723001 -162.63101796 24.73796408 -169 12 C-168.92703363 8.86244627 -168.48070462 7.55761736 -166.4375 5.1875 C-165.963125 4.795625 -165.48875 4.40375 -165 4 C-161.58841744 5.13719419 -160.88145399 6.04342944 -159 9 C-159 9.66 -159 10.32 -159 11 C-158.15695312 11.37318359 -158.15695312 11.37318359 -157.296875 11.75390625 C-154.62288141 13.20459325 -152.53580462 14.9318185 -150.25 16.9375 C-149.45078125 17.62714844 -148.6515625 18.31679687 -147.828125 19.02734375 C-146 21 -146 21 -146 24 C-145.443125 24.0825 -144.88625 24.165 -144.3125 24.25 C-141.30743682 25.22461509 -139.42745178 27.00824469 -137 29 C-136.01 29.33 -135.02 29.66 -134 30 C-134 30.66 -134 31.32 -134 32 C-133.43023437 32.11988281 -132.86046875 32.23976563 -132.2734375 32.36328125 C-129.83806881 33.04535186 -127.86112646 34.00838212 -125.625 35.1875 C-119.19828278 38.43360025 -112.73869843 41.45400995 -106 44 C-105.02571045 44.3727002 -105.02571045 44.3727002 -104.03173828 44.75292969 C-73.53008368 55.87248304 -31.18630863 49.74005535 -2 37 C2.27946705 34.90666779 6.46537967 32.64485598 10.64453125 30.359375 C15.06437347 27.94363527 19.55085598 25.67610586 24.0625 23.4375 C24.75972168 23.09098389 25.45694336 22.74446777 26.17529297 22.38745117 C27.78266423 21.58988964 29.39119231 20.79466006 31 20 C29.97777344 19.70867187 28.95554687 19.41734375 27.90234375 19.1171875 C26.601514 18.74496113 25.30073319 18.37256368 24 18 C22.92878906 17.69320312 21.85757813 17.38640625 20.75390625 17.0703125 C4.96359716 12.39313404 4.96359716 12.39313404 1 7.5625 C-0.06961537 4.82161062 -0.07769558 2.90872817 0 0 Z M37 28 C37.33 28.66 37.66 29.32 38 30 C38.33 29.34 38.66 28.68 39 28 C38.34 28 37.68 28 37 28 Z " fill="#F29405" transform="translate(606,230)"/>
<path d="M0 0 C0.78375 0.04125 1.5675 0.0825 2.375 0.125 C3.365 2.105 4.355 4.085 5.375 6.125 C6.15875 5.485625 6.9425 4.84625 7.75 4.1875 C11.73580551 1.05579567 14.21840493 0.77186445 19.18359375 0.8515625 C21.375 1.125 21.375 1.125 23.8125 2.6875 C28.10199697 9.37911528 28.02987493 17.60109787 28.54516602 25.30566406 C28.68819508 27.38510542 28.85634554 29.46159387 29.02539062 31.5390625 C29.11626953 32.85132813 29.20714844 34.16359375 29.30078125 35.515625 C29.38755127 36.71219727 29.47432129 37.90876953 29.5637207 39.14160156 C29.375 42.125 29.375 42.125 28.19213867 44.10058594 C26.375 45.125 26.375 45.125 23.6875 44.8125 C22.5428125 44.4721875 22.5428125 44.4721875 21.375 44.125 C19.68939913 36.92942505 19.01630885 30.00188631 18.8125 22.625 C18.75273623 20.67695525 18.68913241 18.72902329 18.62109375 16.78125 C18.59716553 15.93369141 18.5732373 15.08613281 18.54858398 14.21289062 C18.50028174 12.06592151 18.50028174 12.06592151 17.375 10.125 C12.38550449 11.37237388 10.12632214 12.76083385 7.375 17.125 C4.12937742 23.37582867 3.93104946 29.38486454 3.75317383 36.30957031 C3.57413074 41.92586926 3.57413074 41.92586926 1.375 44.125 C-1.75 43.75 -1.75 43.75 -4.625 43.125 C-6.7955318 33.35760689 -5.60349121 22.9214729 -5.25 13 C-5.21922363 11.9675415 -5.18844727 10.93508301 -5.15673828 9.87133789 C-5.11790527 8.90059326 -5.07907227 7.92984863 -5.0390625 6.9296875 C-5.0076416 6.05296387 -4.9762207 5.17624023 -4.94384766 4.27294922 C-4.44280627 0.89763367 -3.34847646 0.15945126 0 0 Z " fill="#E0E0E0" transform="translate(751.625,165.875)"/>
<path d="M0 0 C3.41158256 1.13719419 4.11854601 2.04342944 6 5 C6 5.66 6 6.32 6 7 C6.84304688 7.37318359 6.84304688 7.37318359 7.703125 7.75390625 C10.37711859 9.20459325 12.46419538 10.9318185 14.75 12.9375 C15.54921875 13.62714844 16.3484375 14.31679687 17.171875 15.02734375 C19 17 19 17 19 20 C19.556875 20.0825 20.11375 20.165 20.6875 20.25 C23.69256318 21.22461509 25.57254822 23.00824469 28 25 C28.99 25.33 29.98 25.66 31 26 C31 26.66 31 27.32 31 28 C31.56976563 28.11988281 32.13953125 28.23976563 32.7265625 28.36328125 C35.16193119 29.04535186 37.13887354 30.00838212 39.375 31.1875 C48.90907741 36.03891107 58.63787168 40.27815062 69 43 C69 43.33 69 43.66 69 44 C68.16855469 43.98839844 67.33710938 43.97679687 66.48046875 43.96484375 C64.85044922 43.95130859 64.85044922 43.95130859 63.1875 43.9375 C62.10855469 43.92589844 61.02960938 43.91429687 59.91796875 43.90234375 C56.93487831 43.86375234 56.93487831 43.86375234 54 45 C53.505 45.99 53.505 45.99 53 47 C54.65 47 56.3 47 58 47 C58 47.99 58 48.98 58 50 C60.31 50 62.62 50 65 50 C65 50.66 65 51.32 65 52 C65.66 52.33 66.32 52.66 67 53 C41.31334818 49.33047831 12.94003005 31.41573247 -2.625 10.75 C-4 8 -4 8 -3.9375 5.3125 C-2.95882973 2.89844667 -1.99365392 1.6469315 0 0 Z " fill="#C57A0E" transform="translate(441,234)"/>
<path d="M0 0 C1.9375 0.8125 1.9375 0.8125 3.9375 2.8125 C4.05433089 5.44732906 4.0511906 7.96548784 3.94921875 10.59375 C3.92656448 11.36303833 3.90391022 12.13232666 3.88056946 12.92492676 C3.83058269 14.55248361 3.7756131 16.17989385 3.71606445 17.80712891 C3.62537512 20.30217981 3.5506428 22.79731926 3.47851562 25.29296875 C3.42802369 26.87242617 3.37662197 28.45185483 3.32421875 30.03125 C3.30123215 30.7802356 3.27824554 31.52922119 3.25456238 32.30090332 C3.05377576 37.57994848 3.05377576 37.57994848 1.9375 39.8125 C-0.06204746 39.85504356 -2.06291636 39.85330783 -4.0625 39.8125 C-7.13059496 36.74440504 -6.15192373 27.77725842 -6.1875 23.625 C-6.13643128 18.80751752 -5.99331458 13.99917004 -5.75 9.1875 C-5.69199219 8.04023438 -5.63398437 6.89296875 -5.57421875 5.7109375 C-5.0625 2.8125 -5.0625 2.8125 -3.6484375 0.90234375 C-2.0625 -0.1875 -2.0625 -0.1875 0 0 Z " fill="#D9D9D9" transform="translate(725.0625,168.1875)"/>
<path d="M0 0 C2.64 0 5.28 0 8 0 C-2.65934591 7.10623061 -16.61154076 8.83333755 -29 11 C-29.92377441 11.17724609 -30.84754883 11.35449219 -31.79931641 11.53710938 C-35.43727697 12.06324006 -39.0121604 12.1803517 -42.6796875 12.203125 C-43.77532516 12.21167511 -43.77532516 12.21167511 -44.89309692 12.22039795 C-46.43783135 12.22980817 -47.9825855 12.23636603 -49.52734375 12.24023438 C-51.83371636 12.24982827 -54.13915275 12.28084101 -56.4453125 12.3125 C-66.62420104 12.38287418 -76.07526175 11.24461929 -86 9 C-86 8.67 -86 8.34 -86 8 C-81.05 8 -76.1 8 -71 8 C-71 8.66 -71 9.32 -71 10 C-43.7403153 9.95303951 -43.7403153 9.95303951 -16.87890625 5.83984375 C-13.4268398 5.09241748 -10.51125961 4.82749755 -7 5 C-7 4.34 -7 3.68 -7 3 C-3.535 2.505 -3.535 2.505 0 2 C0 1.34 0 0.68 0 0 Z " fill="#CB841E" transform="translate(595,279)"/>
<path d="M0 0 C0.66 0.33 1.32 0.66 2 1 C2.20086443 4.71599191 2.1519437 5.77208445 0 9 C0.99 10.485 0.99 10.485 2 12 C2 12.66 2 13.32 2 14 C-0.1171875 15.54296875 -0.1171875 15.54296875 -2.875 17.1875 C-3.77992188 17.73792969 -4.68484375 18.28835938 -5.6171875 18.85546875 C-6.40351562 19.23316406 -7.18984375 19.61085938 -8 20 C-8.66 19.67 -9.32 19.34 -10 19 C-9.9175 18.071875 -9.835 17.14375 -9.75 16.1875 C-9.8325 15.135625 -9.915 14.08375 -10 13 C-11.95050405 11.28677486 -11.95050405 11.28677486 -14 10 C-12.20856793 9.0204042 -10.41684696 8.0413367 -8.625 7.0625 C-7.12839844 6.24458984 -7.12839844 6.24458984 -5.6015625 5.41015625 C-4.07929654 4.5850241 -2.54871217 3.77435609 -1 3 C-1.33 2.34 -1.66 1.68 -2 1 C-1.34 0.67 -0.68 0.34 0 0 Z " fill="#D68209" transform="translate(638,247)"/>
<path d="M0 0 C0 0.66 0 1.32 0 2 C0.87011719 1.94779297 0.87011719 1.94779297 1.7578125 1.89453125 C7.009134 1.71255476 10.39511219 2.16622289 15 5 C15 5.66 15 6.32 15 7 C15.66 7.33 16.32 7.66 17 8 C17 8.66 17 9.32 17 10 C14.525 9.505 14.525 9.505 12 9 C12.33 9.99 12.66 10.98 13 12 C12.01 12 11.02 12 10 12 C10 11.34 10 10.68 10 10 C9.38511719 9.93941406 8.77023437 9.87882812 8.13671875 9.81640625 C7.32847656 9.73261719 6.52023437 9.64882813 5.6875 9.5625 C4.88699219 9.48128906 4.08648437 9.40007812 3.26171875 9.31640625 C1 9 1 9 -2 8 C-2 7.34 -2 6.68 -2 6 C-2.66 6 -3.32 6 -4 6 C-4.66 4.35 -5.32 2.7 -6 1 C-4 0 -4 0 0 0 Z " fill="#DA850B" transform="translate(480,267)"/>
<path d="M0 0 C3.465 1.98 3.465 1.98 7 4 C7 4.99 7 5.98 7 7 C8.32 7.33 9.64 7.66 11 8 C12.125 13.75 12.125 13.75 11 16 C4.65567026 14.81043817 0.11369891 12.05576736 -4 7 C-4.5 3.5625 -4.5 3.5625 -4 1 C-2.68 1.33 -1.36 1.66 0 2 C0 1.34 0 0.68 0 0 Z " fill="#EE940A" transform="translate(453,249)"/>
<path d="M0 0 C3.89364717 0.57683662 6.01189041 2.54821777 9 5 C9.99 5.33 10.98 5.66 12 6 C12 6.66 12 7.32 12 8 C12.55171875 8.11214844 13.1034375 8.22429687 13.671875 8.33984375 C16.40065211 9.11360773 18.72772943 10.26817694 21.25 11.5625 C22.14203125 12.01753906 23.0340625 12.47257812 23.953125 12.94140625 C24.62859375 13.29074219 25.3040625 13.64007813 26 14 C26 14.33 26 14.66 26 15 C24.02 15 22.04 15 20 15 C20 14.34 20 13.68 20 13 C15.39257135 14.21044132 15.39257135 14.21044132 11 16 C6.11355233 15.00461251 3.21404189 13.85685027 0 10 C1.32 10.33 2.64 10.66 4 11 C4.20970559 6.85906302 4.20970559 6.85906302 3 3 C2.01 2.67 1.02 2.34 0 2 C0 1.34 0 0.68 0 0 Z " fill="#CB7F0D" transform="translate(460,254)"/>
<path d="M0 0 C6.75052102 1.77910928 13.40620337 3.70438191 20 6 C20 6.33 20 6.66 20 7 C17.03 7 14.06 7 11 7 C10.67 8.32 10.34 9.64 10 11 C10.99 11.33 11.98 11.66 13 12 C10.07154334 13.23896243 8.98949975 12.99614276 5.9375 11.875 C2.71926672 9.82080855 1.49352966 8.48490253 0 5 C-0.04397296 3.33391352 -0.05014451 1.66591215 0 0 Z " fill="#D5860F" transform="translate(606,230)"/>
<path d="M0 0 C0.99 0.103125 1.98 0.20625 3 0.3125 C5 3.3125 5 3.3125 4.75 5.875 C4 8.3125 4 8.3125 2 10.3125 C-1.125 9.9375 -1.125 9.9375 -4 9.3125 C-4.625 5.9375 -4.625 5.9375 -5 2.3125 C-3 0.3125 -3 0.3125 0 0 Z " fill="#D5D5D5" transform="translate(697,201.6875)"/>
<path d="M0 0 C3.47775179 1.51553404 5.9557984 3.5773456 8.75 6.125 C9.94882812 7.21167969 9.94882812 7.21167969 11.171875 8.3203125 C11.77515625 8.87460938 12.3784375 9.42890625 13 10 C12.67 10.66 12.34 11.32 12 12 C11.236875 11.484375 10.47375 10.96875 9.6875 10.4375 C8.800625 9.963125 7.91375 9.48875 7 9 C6.01 9.33 5.02 9.66 4 10 C3.34 9.67 2.68 9.34 2 9 C2 10.65 2 12.3 2 14 C0.02 12.35 -1.96 10.7 -4 9 C-3.01 8.67 -2.02 8.34 -1 8 C-1 7.34 -1 6.68 -1 6 C-0.01 6 0.98 6 2 6 C2 5.01 2 4.02 2 3 C1.34 3 0.68 3 0 3 C0 2.01 0 1.02 0 0 Z " fill="#CC7C0C" transform="translate(447,241)"/>
<path d="M0 0 C2.375 1.3125 2.375 1.3125 3.375 3.1875 C3.375 5.3125 3.375 5.3125 2.25 7.5625 C0.375 9.3125 0.375 9.3125 -2.1875 9.6875 C-4.625 9.3125 -4.625 9.3125 -6.625 7.3125 C-6.25 3.6875 -6.25 3.6875 -5.625 0.3125 C-2.625 -0.6875 -2.625 -0.6875 0 0 Z " fill="#CBCBCB" transform="translate(727.625,150.6875)"/>
<path d="M0 0 C-8.1096887 5.40645913 -19.33560746 4.25104936 -28.6875 4.125 C-29.97333984 4.11597656 -31.25917969 4.10695313 -32.58398438 4.09765625 C-35.72285732 4.0743189 -38.86132476 4.04158033 -42 4 C-42 3.67 -42 3.34 -42 3 C-41.27522461 2.9498877 -40.55044922 2.89977539 -39.80371094 2.84814453 C-36.45203008 2.61300434 -33.1010439 2.36904341 -29.75 2.125 C-28.61046875 2.04636719 -27.4709375 1.96773438 -26.296875 1.88671875 C-19.60795599 1.39265087 -13.1137956 0.60558877 -6.53222656 -0.69970703 C-4.00946726 -0.99887729 -2.38941754 -0.79623867 0 0 Z " fill="#B47417" transform="translate(579,277)"/>
<path d="M0 0 C0 0.66 0 1.32 0 2 C2.31 2 4.62 2 7 2 C7 2.99 7 3.98 7 5 C6.01 5.33 5.02 5.66 4 6 C4.33 6.99 4.66 7.98 5 9 C2.69 8.67 0.38 8.34 -2 8 C-2 7.34 -2 6.68 -2 6 C-2.66 6 -3.32 6 -4 6 C-4.66 4.35 -5.32 2.7 -6 1 C-4 0 -4 0 0 0 Z " fill="#F89905" transform="translate(480,267)"/>
<path d="M0 0 C3.465 1.98 3.465 1.98 7 4 C6.67 5.32 6.34 6.64 6 8 C6.66 8.33 7.32 8.66 8 9 C5.6875 9.6875 5.6875 9.6875 3 10 C1.4375 8.625 1.4375 8.625 0 7 C-2.10332891 6.28552357 -2.10332891 6.28552357 -4 6 C-4 4.35 -4 2.7 -4 1 C-2.68 1.33 -1.36 1.66 0 2 C0 1.34 0 0.68 0 0 Z " fill="#F79705" transform="translate(453,249)"/>
<path d="M0 0 C0 0.66 0 1.32 0 2 C-6.98001187 6.49822987 -14.60406127 9.30310248 -23 9 C-23 9.66 -23 10.32 -23 11 C-25.64 11 -28.28 11 -31 11 C-28.11504179 9.47618433 -25.25838988 8.34900647 -22.15625 7.34375 C-21.23972656 7.04339844 -20.32320312 6.74304688 -19.37890625 6.43359375 C-17.45963542 5.81119792 -15.54036458 5.18880208 -13.62109375 4.56640625 C-12.70457031 4.26605469 -11.78804687 3.96570313 -10.84375 3.65625 C-10.01037109 3.38619141 -9.17699219 3.11613281 -8.31835938 2.83789062 C-5.98381904 2.04740675 -5.98381904 2.04740675 -3.82226562 0.89648438 C-2 0 -2 0 0 0 Z " fill="#9A6114" transform="translate(610,265)"/>
<path d="M0 0 C2.64 0 5.28 0 8 0 C0.98178171 4.67881219 -8.71454218 7.46565596 -17 9 C-19.2109375 8.5390625 -19.2109375 8.5390625 -21 8 C-20.34 8 -19.68 8 -19 8 C-19 7.34 -19 6.68 -19 6 C-13.06 5.505 -13.06 5.505 -7 5 C-7 4.34 -7 3.68 -7 3 C-3.535 2.505 -3.535 2.505 0 2 C0 1.34 0 0.68 0 0 Z " fill="#955D12" transform="translate(595,279)"/>
<path d="M0 0 C1.52519276 0.08937803 3.04681929 0.24537146 4.5625 0.4375 C5.38878906 0.53933594 6.21507812 0.64117187 7.06640625 0.74609375 C7.70449219 0.82988281 8.34257813 0.91367187 9 1 C9 1.66 9 2.32 9 3 C6.8828125 4.54296875 6.8828125 4.54296875 4.125 6.1875 C3.22007812 6.73792969 2.31515625 7.28835938 1.3828125 7.85546875 C0.59648438 8.23316406 -0.18984375 8.61085938 -1 9 C-1.66 8.67 -2.32 8.34 -3 8 C-1.125 1.125 -1.125 1.125 0 0 Z " fill="#CA7D0D" transform="translate(631,258)"/>
<path d="M0 0 C0.763125 0.061875 1.52625 0.12375 2.3125 0.1875 C2.3125 0.8475 2.3125 1.5075 2.3125 2.1875 C-0.30785018 3.55139525 -2.93306999 4.90382173 -5.5625 6.25 C-6.68205078 6.83491211 -6.68205078 6.83491211 -7.82421875 7.43164062 C-8.53964844 7.79580078 -9.25507812 8.15996094 -9.9921875 8.53515625 C-10.9819458 9.04574585 -10.9819458 9.04574585 -11.99169922 9.56665039 C-12.55131348 9.77153076 -13.11092773 9.97641113 -13.6875 10.1875 C-14.3475 9.8575 -15.0075 9.5275 -15.6875 9.1875 C-15.3575 8.1975 -15.0275 7.2075 -14.6875 6.1875 C-12.7265625 5.34375 -12.7265625 5.34375 -10.3125 4.6875 C-6.25177964 3.57642342 -3.91260142 0.27297219 0 0 Z " fill="#A16313" transform="translate(623.6875,266.8125)"/>
<path d="M0 0 C-3.32609792 2.21739862 -5.3930273 2.55538805 -9.3125 3.125 C-10.42238281 3.29257812 -11.53226563 3.46015625 -12.67578125 3.6328125 C-15.81772994 3.97986676 -18.84238352 4.06687841 -22 4 C-19.16397759 1.16397759 -15.93513292 0.99697521 -12.125 0.3125 C-11.40441406 0.17005859 -10.68382812 0.02761719 -9.94140625 -0.11914062 C-3.4063722 -1.3286635 -3.4063722 -1.3286635 0 0 Z " fill="#B37114" transform="translate(576,287)"/>
<path d="M0 0 C0.66 0 1.32 0 2 0 C0.87314977 3.38055068 -0.05384625 4.1079382 -2.75 6.3125 C-5.39843022 8.53926602 -7.69317342 10.70246693 -9.8125 13.4375 C-10.534375 14.283125 -11.25625 15.12875 -12 16 C-12.99 16 -13.98 16 -15 16 C-15 15.34 -15 14.68 -15 14 C-14.34 14 -13.68 14 -13 14 C-12.64421875 13.14148438 -12.64421875 13.14148438 -12.28125 12.265625 C-10.72406762 9.5120708 -8.87507203 7.83204366 -6.5 5.75 C-5.7059375 5.04359375 -4.911875 4.3371875 -4.09375 3.609375 C-2 2 -2 2 0 2 C0 1.34 0 0.68 0 0 Z " fill="#B6B6B6" transform="translate(47,79)"/>
<path d="M0 0 C0.66 0 1.32 0 2 0 C2.66 1.65 3.32 3.3 4 5 C4.66 5 5.32 5 6 5 C6 5.66 6 6.32 6 7 C8.31 7.33 10.62 7.66 13 8 C12.67 8.66 12.34 9.32 12 10 C8.40865743 9.31066647 5.5657477 7.82128141 2.375 6.0625 C1.41335938 5.53785156 0.45171875 5.01320313 -0.5390625 4.47265625 C-3 3 -3 3 -5 1 C-3.35 1 -1.7 1 0 1 C0 0.67 0 0.34 0 0 Z " fill="#A86A11" transform="translate(472,268)"/>
<path d="M0 0 C0.33 0 0.66 0 1 0 C1 1.98 1 3.96 1 6 C2.32 6 3.64 6 5 6 C5 5.34 5 4.68 5 4 C6.32 4 7.64 4 9 4 C8 7 8 7 5 9 C2.3125 8.625 2.3125 8.625 0 8 C-1.125 2.25 -1.125 2.25 0 0 Z " fill="#965F18" transform="translate(635,273)"/>
<path d="M0 0 C4.95 0 9.9 0 15 0 C15 0.99 15 1.98 15 3 C13.24929483 2.88529863 11.49942464 2.75780972 9.75 2.625 C8.77546875 2.55539062 7.8009375 2.48578125 6.796875 2.4140625 C4 2 4 2 0 0 Z " fill="#AE7012" transform="translate(509,287)"/>
<path d="M0 0 C1.6026782 -0.10824843 3.20745748 -0.18570645 4.8125 -0.25 C5.70582031 -0.29640625 6.59914063 -0.3428125 7.51953125 -0.390625 C10 0 10 0 11.82421875 2.015625 C12.40623047 2.99789062 12.40623047 2.99789062 13 4 C8.28596212 3.52060632 4.33420699 3.03165952 0 1 C0 0.67 0 0.34 0 0 Z " fill="#9F6010" transform="translate(648,236)"/>
<path d="M0 0 C0.99 0 1.98 0 3 0 C3 0.99 3 1.98 3 3 C3.66 3 4.32 3 5 3 C5 3.99 5 4.98 5 6 C4.01 6 3.02 6 2 6 C2.33 6.99 2.66 7.98 3 9 C1.68 8.34 0.36 7.68 -1 7 C-0.649375 6.401875 -0.29875 5.80375 0.0625 5.1875 C1.33304698 2.89186786 1.33304698 2.89186786 0 0 Z " fill="#F99909" transform="translate(444,241)"/>
<path d="M0 0 C0 0.66 0 1.32 0 2 C-1.65 1.67 -3.3 1.34 -5 1 C-4.67 1.99 -4.34 2.98 -4 4 C-4.99 4 -5.98 4 -7 4 C-7 3.34 -7 2.68 -7 2 C-8.32 1.67 -9.64 1.34 -11 1 C-7.2297564 -1.56376565 -4.32597804 -0.83191885 0 0 Z " fill="#FC9802" transform="translate(497,275)"/>
<path d="M0 0 C2.475 0.495 2.475 0.495 5 1 C4.01 1.33 3.02 1.66 2 2 C2.34444881 4.47266765 2.34444881 4.47266765 3 7 C3.66 7.33 4.32 7.66 5 8 C5.33 8.99 5.66 9.98 6 11 C3 10 3 10 1.3125 7.75 C-0.06511203 4.8635748 -0.26985151 3.14826764 0 0 Z " fill="#8C5717" transform="translate(606,230)"/>
<path d="M0 0 C0.66 0.33 1.32 0.66 2 1 C-3.86516854 5.88764045 -3.86516854 5.88764045 -7 7 C-8.34353414 6.71050922 -9.67965718 6.38155437 -11 6 C-9.21385682 4.96953278 -7.42089982 3.95086764 -5.625 2.9375 C-4.62726562 2.36902344 -3.62953125 1.80054688 -2.6015625 1.21484375 C-1.74304688 0.81394531 -0.88453125 0.41304688 0 0 Z " fill="#9F6112" transform="translate(621,258)"/>
<path d="M0 0 C0.99 0.33 1.98 0.66 3 1 C3 1.66 3 2.32 3 3 C1.35 3.33 -0.3 3.66 -2 4 C-2 5.65 -2 7.3 -2 9 C-1.34 9.33 -0.68 9.66 0 10 C-0.99 10 -1.98 10 -3 10 C-3.75 7.8125 -3.75 7.8125 -4 5 C-2.0625 2.1875 -2.0625 2.1875 0 0 Z " fill="#7D4F14" transform="translate(441,234)"/>
<path d="M0 0 C0.66 0 1.32 0 2 0 C0.24277009 4.31320068 -2.8062168 7.9031084 -7 10 C-6.34 8.35 -5.68 6.7 -5 5 C-4.34 5 -3.68 5 -3 5 C-2.690625 4.360625 -2.38125 3.72125 -2.0625 3.0625 C-1 1 -1 1 0 0 Z " fill="#B7B7B7" transform="translate(284,125)"/>
<path d="M0 0 C0.66 0 1.32 0 2 0 C0.90931332 3.77545388 0.0916909 6.47043472 -3 9 C-3.33 6.69 -3.66 4.38 -4 2 C-3.34 1.67 -2.68 1.34 -2 1 C-2 1.66 -2 2.32 -2 3 C-1.34 3 -0.68 3 0 3 C0 2.01 0 1.02 0 0 Z " fill="#A0640E" transform="translate(656,259)"/>
<path d="M0 0 C3.68754757 0.49831724 5.60490662 1.10067643 8 4 C7.67 4.99 7.34 5.98 7 7 C5.83040013 6.02433888 4.66438823 5.044375 3.5 4.0625 C2.8503125 3.51722656 2.200625 2.97195313 1.53125 2.41015625 C1.0259375 1.94480469 0.520625 1.47945313 0 1 C0 0.67 0 0.34 0 0 Z " fill="#A06213" transform="translate(449,255)"/>
<path d="M0 0 C0 0.66 0 1.32 0 2 C-6.4 6.06153846 -6.4 6.06153846 -9.4375 5.75 C-9.953125 5.5025 -10.46875 5.255 -11 5 C-2.81818182 0 -2.81818182 0 0 0 Z " fill="#C27C17" transform="translate(610,265)"/>
<path d="M0 0 C2.64 0 5.28 0 8 0 C4.71536341 2.18975773 1.79303725 2.99806563 -2 4 C-2 3.34 -2 2.68 -2 2 C-1.34 2 -0.68 2 0 2 C0 1.34 0 0.68 0 0 Z " fill="#A5650F" transform="translate(595,279)"/>
<path d="M0 0 C0.66 1.32 1.32 2.64 2 4 C0.35 5.98 -1.3 7.96 -3 10 C-3.66 8.68 -4.32 7.36 -5 6 C-3.68 5.67 -2.36 5.34 -1 5 C-0.67 3.35 -0.34 1.7 0 0 Z " fill="#A5630E" transform="translate(651,265)"/>
<path d="M0 0 C2.64 1.98 5.28 3.96 8 6 C7.67 6.66 7.34 7.32 7 8 C4.0625 6.25 4.0625 6.25 1 4 C0.67 2.68 0.34 1.36 0 0 Z " fill="#905A14" transform="translate(452,245)"/>
<path d="M0 0 C0.33 0.66 0.66 1.32 1 2 C0.01 2.495 0.01 2.495 -1 3 C-1.33 3.99 -1.66 4.98 -2 6 C-3.32 6 -4.64 6 -6 6 C-4.95125002 3.37812506 -4.35068687 2.20628639 -1.875 0.75 C-1.25625 0.5025 -0.6375 0.255 0 0 Z " fill="#F39911" transform="translate(626,257)"/>
<path d="M0 0 C0.99 0 1.98 0 3 0 C3.33 1.65 3.66 3.3 4 5 C2.02 5.99 2.02 5.99 0 7 C0 4.66666667 0 2.33333333 0 0 Z " fill="#BC7312" transform="translate(643,255)"/>
</svg>
